# xmcd
#
# Track frame offsets:
#	150
#	15655
#	29302
#	43140
#	59967
#	74100
#	86217
#	97437
#	110067
#	123412
#	142227
#	155337
#	167215
#	184345
#	197452
#	209860
#	223350
#	234737
#
# Disc length: 3279
#
# Revision: 3
# Processed by: cddbd v1.5.1PL0 Copyright (c) Steve Scherf et al.
# Submitted via: audiograbber 1.83.01
# Normalized: r2:DSETVAR1
#
DISCID=350ccd12
DTITLE=Various Artist - Goldene Schlager-Duette [CD 2)
DYEAR=1995
DGENRE=Schlager
TTITLE0=Roy Black and Anita - Schön ist es auf der Welt zu sein
TTITLE1=Wencke Myhre and Denny - Wir beide gegen den Wind
TTITLE2=Mary Roos and David Hanselmann - Lady
TTITLE3=Nina and Mike - Der Stern von Montego
TTITLE4=Vivi Bach and Gerhard Wendland - Hey Vivi hey Gerhard
TTITLE5=Manuela and Drafi Deutscher - Die goldene Zeit
TTITLE6=Conny Froboess and Peter Alexander - Verliebt, verlobt, verheiratet
TTITLE7=Caterina Valente and Silvio Francesco - Quando - Quando
TTITLE8=Cindy and Bert - Spaniens Gitarren
TTITLE9=Adam and Eve - Wenn die Sonne erwacht in den Bergen
TTITLE10=Gitte and Rex Gildo - Vom Stadtpark die Laternen
TTITLE11=Bibi Johns and Peter Alexander - Schön wieder Mal
TTITLE12=Gunter Gabriel and Yvonne - Hey Yvonne
TTITLE13=Marika Kilius and H.J. Bäumler - Honeymoon in St. Tropez
TTITLE14=Dagmar Frederic and Siegfried Uhlenbrock - Du hast Gelacht
TTITLE15=Lonney Keller and Peter Frankenfeld - Bum-Budi-Bum, das kann gefährlich sein
TTITLE16=Bibi Johns and Paul Kuhn - Ich möcht auf deiner Hochzeit tanzen
TTITLE17=Leila Negra and Peter Alexander - Die süssesten Früchte
EXTD=
EXTT0=
EXTT1=
EXTT2=
EXTT3=
EXTT4=
EXTT5=
EXTT6=
EXTT7=
EXTT8=
EXTT9=
EXTT10=
EXTT11=
EXTT12=
EXTT13=
EXTT14=
EXTT15=
EXTT16=
EXTT17=
PLAYORDER=
